<svg viewBox="0 0 1024 1024" xmlns="http://www.w3.org/2000/svg"><path d="M136.66 799.78c0.52 0.45 0.77 1.08 0.69 1.71 0 1.71-1.37 2.3-2.8 1.71l-2.17-1.71c-0.65-1.67-2.24-2.96-4.23-3.42-1.54-0.83-2.77-2.02-3.55-3.42v-1.71s1.37-0.54 2.12 0c3.53 2.29 6.39 4.59 9.94 6.84z m4.97-120.91c1.72 1.43 4.01 2.23 6.41 2.25 0-1.71-2.86-3.42-4.23-4.55-5.47-4.63-10.27-9.8-14.3-15.41-10.48-14.38-16.14-30.94-16.36-47.89 0.25-5.96-0.46-11.92-2.12-17.71-0.69 1.13-0.69 2.3-1.37 2.84a82.492 82.492 0 0 0 0 23.38c3.6 21.38 14.75 41.3 31.97 57.09z m-84.71-57.08h0.74c0-7.39 0.69-20.49 1.43-27.93h-1.43c-1.37 6.85 0 19.57-0.69 26.27-0.54 0.28-0.7 0.89-0.37 1.35 0.09 0.13 0.22 0.24 0.37 0.32l-0.05-0.01z m90.44 66.18v1.71c1.18 1.34 3.4 1.6 4.97 0.59 0 0 0.01 0 0.01-0.01-0.74-1.71-1.49-2.84-3.6-2.84l-1.38 0.55z m-74.77-5.68c3.04 8.89 7.61 17.35 13.56 25.09-4.83-9.59-8.65-19.53-11.44-29.69h-2.17l0.05 4.6z m-8.52-38.78c-2.43 4.95-1.32 10.66 2.86 14.67-2.12-5.48 1.43-5.48-2.63-14.67h-0.23z m25.62 83.83c-0.69-0.59-0.69-1.13-1.43-1.71-1.43 6.26-1.43 6.26 5.72 7.97a69.44 69.44 0 0 0-4.29-6.26z m-34.89-67.3c-1.12-8.33-1.83-16.71-2.12-25.09v-4.01c-1.06 0.64-1.61 1.74-1.43 2.84-0.69 9.32-0.69 18.66 0 27.98a431.97 431.97 0 0 0 13.56 55.32c6.41 14.88 15.25 28.91 26.26 41.67 0.74 1.71 3.6 2.25 5.72 2.84-5.64-5.35-10.45-11.3-14.3-17.71-14.26-26.55-23.6-54.84-27.69-83.84z m554.87 191.69c-1.37-1.17-4.23-1.17-4.92 0.54s-4.29 2.89-6.41 4.01c-1.27 0.33-1.99 1.47-1.61 2.56 0.03 0.1 0.08 0.19 0.12 0.28 0.82 0.62 1.83 1.03 2.92 1.17 4.23-1.17 7.78-1.71 10.01-4.89 0.63-1.17 2.06-2.3 0-3.42l-0.11-0.25z m-22.02 10.81c0.69 0.59 2.17 1.71 2.8 1.13 0.63-0.59 1.49-1.71 2.17-2.25-1.1-0.69-2.29-1.27-3.55-1.71-0.68 1.7-2.11 2.83-1.42 2.83z m-461.12-69.6h-2.12c0 0.59-0.74 1.17 0 1.71s2.12 2.89 3.55 3.42 3.55 1.71 4.23 3.42c0 0.59 1.43 1.17 2.17 1.71s2.86 0 2.86-1.71c0-0.54 0-1.71-0.74-1.71-3.55-2.25-6.41-4.55-10.01-6.85l0.06 0.01zM964.79 492.9v1.71l-2.12 4.89s-61.15 293.19-72.59 297.78c-11.16-16.42-20.73-33.6-28.6-51.36l-2.12-1.71-1.43-4.89-1.37-1.71a58.936 58.936 0 0 1-10.01 7.43c-0.69 0.54-1.43 0.54-2.8 1.13v-2.84c-4.29 2.84-10.01 7.39-19.22 13.7-16.63 13.79-35.28 25.67-55.49 35.36-2.17 2.84-10.01 6.85-9.27 6.85-3.55 1.71-6.41 3.42-10.01 4.89-1.04 1.43-2.5 2.61-4.23 3.42a53.03 53.03 0 0 1-10.01 5.67c-8.52 3.42-17.16 6.85-26.26 10.86-5.72 2.84-12.13 5.67-17.85 7.97a24.825 24.825 0 0 1-5.72 2.84c-18.65 9.3-38.48 16.76-59.09 22.26-4.37 1.1-8.65 2.44-12.81 4.01-8.53 5.19-18.3 8.69-28.6 10.27-10.64 1.71-21.34 5.67-32.72 7.39-43.12 9.16-87.19 14.72-131.57 16.58-25.43 0.72-50.88-0.25-76.14-2.89 2.12-1.71 3.6-2.84 6.41-1.71 1.84 0.54 3.79 0.74 5.72 0.59 2.12 0 4.92-1.13 7.04-1.13 27.54 1.28 55.16 0.71 82.6-1.71 56.3-4.56 110.6-20.18 158.68-45.64-52.48 20.18-108.08 33.82-165.09 40.5-42.91 2.49-85.98 2.1-128.82-1.17-3.55-0.54-14.93-1.71-29.86-4.55-11.41-1.17-22.62-3.46-33.41-6.85-2.12 0.3-4.28-0.34-5.72-1.71l-6.41-1.71h-2.06c-1.37-0.59-3.55-1.13-4.92-1.71-1.37-0.59-2.17-1.13-3.6-1.71-10.05-3.4-19.79-7.4-29.17-11.98-7.96-3.98-15.78-8.15-23.45-12.52-4.2-1.55-8.06-3.68-11.44-6.31-3.18-2.8-6.52-5.46-10.01-7.97-20.16-14.93-38.28-31.76-54-50.18 2.06-1.17 2.8 0 3.55 0.54s14.93 14.28 17.73 14.28c1.43-1.71 0-2.84-1.43-4.55-4.98-4.6-1.37-2.3-6.41-6.85-2.12-1.71-0.63-2.89 2.86 0 8.58 4.89 8.58 3.42 12.81 6.26 2.39 1.11 5.15 1.51 7.84 1.13 1.37-1.71-5.03-7.97-7.15-10.27-3.33-3.96-7.41-7.42-12.07-10.22-2.86-1.17 1.37-1.17 0-3.42s-9.27-6.31-8.52-9.15 6.41 5.14 10.64 8.56c1.43 1.13 3.55 1.13 5.72 2.84s15.67 18.24 18.59 20.54c2.92 2.3 20.59 16.53 28.6 21.67 19.34 11.66 40.53 20.88 62.92 27.39A563.95 563.95 0 0 0 324 844.65a964.958 964.958 0 0 1-85.8-17.71c-32.51-8.15-61.8-23.72-84.72-45.05-7.84-6.85-44.1-39.13-47.65-42.8-0.74-3.42-6.41-8.56-6.41-10.27 0-1.71 2.8-1.13 3.55-0.59 0.74 0.54 5.72 9.15 7.78 6.85 2.06-2.3-2.75-3.42-2.75-4.89-0.97-5.43-3.71-10.51-7.89-14.67-2.8-1.71-4.29-5.14-7.84-10.81-1.25-1.72-1.49-3.84-0.63-5.72 0.63 0 0.63 0 1.32-0.59a20.12 20.12 0 0 1 2.86 4.01c2.17 3.42 15.67 22.26 16.42 22.79 3.55 4.01 7.09 7.43 10.7 10.86 6.4 7.25 13.8 13.82 22.02 19.57 8.07 6.07 17.2 11.02 27.06 14.67-25.77-13.55-46.7-32.89-60.52-55.91-7.09-10.27-9.27-18.83-11.44-21.13-2.17-3.96-3.6-7.97-4.98-10.27-2.66-3.39-5.52-6.65-8.58-9.78-2.12 1.13 0.69 7.43 1.43 9.15 0.74 1.71 2.12 2.84 1.37 4.89-1.37 0.54-2.8-1.17-2.8-1.17-2.12-2.84-6.41-11.4-7.84-13.7-6.2-10.99-8.91-23.19-7.84-35.36-0.63-8.56 0-14.67 0-20.49 0-8.56 4.29-37.66 5.72-45.64 0-1.17 0.74-1.71 1.49-3.42 1.48 3.25 1.97 6.77 1.43 10.22v22.84c-2.32 11.95-0.59 24.22 4.98 35.36a343.6 343.6 0 0 0 16.36 39.13c24.44 48.29 75.89 82.67 136.6 91.27-52.61-15.88-97.63-46.16-128.08-86.14-11.44-18.24-3.55-1.17-13.56-31.94-1.37-4.6-2.8-10.86 0-10.86s2.17-4.89 2.86-7.43-0.63-4.55 0.69-5.67c2.23-0.59 1.49 8.56 3.6 11.98 2.12 3.42-4.98 0 5.72 19.96 11.99 20.74 29.86 38.59 52 51.9l4.23 1.71c4.96 3.2 10.2 6.06 15.67 8.56 3.55 1.71 7.84 2.3 11.44 4.01 7.84 2.84 14.93 6.26 22.88 9.1 0 0 3.49 1.17 9.15 3.42l6.41 1.71a113.8 113.8 0 0 0 13.56 2.89h2.17c6.1 1.21 12.27 2.16 18.48 2.84 7.16 0.4 14.29 1.17 21.34 2.3 13.56 1.13 27.74 1.71 42.04 1.71 2.8 0 6.35-0.59 9.15-0.59 1.49 0 2.92-0.59 3.6 0.59h0.69c16.46-0.61 32.86-2.15 49.08-4.6 6.41-1.13 14.3-1.71 19.96-2.25h0.69c2.17 0 4.98-0.59 5.72-0.59-1.37 0 3.55-0.59 5.03-1.13 1.49-0.54 4.23-1.71 6.41-2.3 7.78-1.71 14.93-4.55 22.88-6.85 15.67-4.55 32.03-10.27 47.71-14.67 0 0 7.09-2.3 18.48-6.26 14.93-5.72 29.17-11.98 43.36-17.71 2.23-1.13 4.35-2.3 6.46-1.13 6.41-2.3 12.81-5.14 19.22-8.02 27.34-14.31 53.71-29.92 79-46.76 4.29-2.3 12.81-8.56 12.81-7.97 7.84-4.89 9.21-6.26 9.21-7.97s-9.95-3.42-9.95-3.42-79.05-13.16-79.05-15.41 45.76-13.16 77.62-22.84c1.98-1.34 4.13-2.49 6.41-3.42 29.86-6.26 81.11-29.1 110.97-34.24 93.24-31.35 148.73-54.2 155.88-57.03 16.3-6.26 17.16 6.85 17.16 6.85l-0.74 4.01-0.97 0.27zM697.94 628.1c-10.01 6.85-19.22 13.7-29.12 19.96-9.9 6.26-19.96 13.11-29.92 18.83-9.95 5.72-20.65 11.98-31.35 17.66-5.72 2.89-10.7 5.72-16.36 8.02s-11.44 4.89-17.16 7.39c12.03-3.55 23.7-7.93 34.89-13.11 11.14-5.04 21.85-10.76 32.03-17.12 10.4-6.15 20.37-12.82 29.86-19.96 4.92-3.42 9.21-7.43 14.19-10.86 4.98-3.42 8.58-6.85 12.81-10.81h0.13zM843.29 340c0.69 3.42-0.69 6.26-3.55 6.26-1.89-21.05-9.17-41.49-21.34-59.87 2.69-0.65 5.55 0.26 7.09 2.25 8.85 16.28 14.84 33.59 17.8 51.36z m-24.2-57.03c-12.6-15.12-27.7-28.58-44.85-39.96-0.98-0.01-1.94 0.19-2.8 0.59 15.11 10.78 28.93 22.83 41.24 35.95 1.18 2.22 3.85 3.58 6.69 3.42h-0.28z m-64.7-50.19h-2.92c4.65 2.94 9.68 5.42 14.99 7.39-3.65-2.87-7.71-5.35-12.07-7.39z m86.78 131.19c0.14 1.27 1.37 2.26 2.86 2.3 0.95-4.92 0.44-9.97-1.49-14.67-0.52 0.07-0.99 0.28-1.37 0.59v11.78z m182.14 14.67c-1.21 5.99-2.87 11.9-4.98 17.71-1.83 7.85-5.22 15.38-10.01 22.26-0.62 1.63-1.55 3.17-2.75 4.55a44.2 44.2 0 0 1-7.15 9.78c-2.1 3.54-4.74 6.83-7.84 9.78-2.12 2.89-4.23 4.89-6.41 8.02-0.63 1.13-3.55 0-2.86-1.17 5.6-9.62 9-20.06 10.01-30.77-4.55 5.95-9.54 11.65-14.93 17.07-1.98 3.76-4.65 7.22-7.89 10.27-5.76 3.7-10.58 8.36-14.19 13.7-2.17 2.89-10.01 6.31-10.7 7.43-1.73 1.94-4.32 3.18-7.15 3.42 1.49-4.89 5.03-4.89 7.15-9.78 2.79-3.41 5.19-7.05 7.15-10.86-2.86 0-6.41 6.85-9.27 7.43-2.86 0.59-5.03-0.59-5.72-0.59 0.98-3 2.4-5.87 4.23-8.56 5.24-7.98 8.86-16.66 10.7-25.68a83.568 83.568 0 0 1 6.41-19.96 84.376 84.376 0 0 1-1.49-15.99c0.74-1.71-2.12-3.42-3.55-3.42-2.86 0.59-4.23 10.27-4.23 12.57-0.04 0.8-0.27 1.58-0.69 2.3 0.69 2.25 1.37 3.42 1.37 3.96 0 1.71-0.69 6.31-1.37 13.16-2.4 10.5-6.99 20.54-13.56 29.64-4.98 5.72-3.6 3.42-10.64 7.43-7.04 4.01 6.41-0.59-9.27 5.67-15.67 6.26-17.85 8.56-18.48 10.27s-1.49-6.26 2.8-8.56c0-0.54 0.69-1.13 1.43-1.71l17.79-37.08c2.9-10.3 4.82-20.79 5.72-31.35 0.05-20.5-3.55-40.89-10.7-60.46 4.41 21.07 5.6 42.55 3.55 63.88-2.87 22.57-11.9 44.25-26.37 63.29a339.53 339.53 0 0 1-16.3 18.83c-6.41 2.3-13.56 17.12-17.16 16.53-2.12-2.25 0-9.1 5.03-11.4 3.49-1.71 8.52-4.89 8.52-8.56 2.05-6.14 4.91-12.07 8.52-17.66 2.12-2.3 4.29-9.78 1.43-10.27-2.11-0.52-4.33 0.47-5.03 2.25-1.7 4.37-4.34 8.44-7.78 11.98-3.53 1.81-6.66 4.12-9.27 6.85-1.43 1.17-22.02 25.68-25.63 25.68-5.64 2.22-10.9 5.1-15.62 8.56a44.659 44.659 0 0 1-5.72 5.14c-0.69 0.59-4.29 0.59-6.41 1.13-0.69 0-2.17 0-2.17 0.59l0.74-0.59c3.03-2.55 5.66-5.43 7.84-8.56l-2.17 3.42c0.74-0.54 0.74-1.13 1.49-1.71v-0.54c0.69-0.59 0.69-1.71 1.37-2.3v-0.59c0.69-0.54 0.69-1.71 1.43-2.25v-0.59c0.74-0.59 0.74-1.71 1.43-2.3 0.69-0.59 0.69-1.13 1.43-2.25 0-0.32 0.31-0.59 0.69-0.59a71.02 71.02 0 0 0 5.72-10.27c11.65-18.88 20.27-39.02 25.63-59.87 2.12-8.02 5.72-39.13 5.72-43.39 0.26-4 0.02-8.02-0.69-11.98 0.65-54.63-32.33-105.52-86.83-134.02-1.26-0.44-2.45-1.02-3.55-1.71-5.72-2.89-10.7-5.72-16.36-8.02a75.435 75.435 0 0 0-12.13-3.42c-7.99-2.31-15.84-4.97-23.51-7.97 0 0-3.49-1.13-9.9-2.84l-24.25-4.89c-0.63 0-1.37 0-1.37-0.59A330.995 330.995 0 0 0 634 194.7c-31.95-0.11-63.86 1.98-95.41 6.26-2.03 0.67-4.17 1.07-6.35 1.17-4.23 0.54-7.84 2.25-12.13 2.84-8.52 1.71-16.36 2.84-24.88 4.55 0 0-3.55 0.59-9.27 1.71-0.69 0-0.69 0-1.43 0.59l-22.88 6.85c-0.74 0-1.49 0.59-2.17 0.59h-0.74c-23.45 6.85-44.05 13.7-64.01 21.08-1.61 0.87-3.29 1.64-5.03 2.3-10.7 4.29-21.14 9.04-31.29 14.23l34.89 9.15c-32.82 8.99-66.06 16.79-99.65 23.38-5.96 2.05-12.15 3.58-18.48 4.55 0-0.54 2.12-1.13 2.86-1.71a124.8 124.8 0 0 1-17.16 2.3c-2.12 0-3.6 0-4.23-0.59 23.06-31.93 48.74-62.43 76.82-91.27l-0.69 26.85c55.41-31.91 115.75-57.06 179.27-74.74 1.43-0.59 2.92-0.59 4.29-1.17 0.53-0.06 1.02-0.24 1.43-0.54 9.49-3.1 19.24-5.59 29.17-7.43 2.28-0.04 4.5-0.64 6.41-1.71 7.16-1.86 14.55-3.01 22.02-3.42 40.23-7.44 81.26-11.26 122.41-11.4 4.29 0 8.58-0.59 13.56-0.59h5.03c0.88-0.43 1.9-0.62 2.92-0.54a9.81 9.81 0 0 1 3.49 0.54c1.93-0.09 3.87 0.11 5.72 0.59 1.37-0.59 2.12-1.13 2.8-1.13h5.72c5.85 1.21 11.77 2.15 17.73 2.84 2.6 0.44 5.25 0.64 7.89 0.59 10.12 0.79 20.12 2.43 29.86 4.89 2.28 0.68 4.68 1.06 7.09 1.13 4.71 0.06 9.35 1.03 13.56 2.84 2.12 1.13 4.98 1.71 7.09 2.84 56.55 14.69 107.59 41.85 147.98 78.75l7.89 7.97c0.69 0.59 1.37 1.71 2.8 3.42l0.74 0.59s0 0.59 0.63 0.59c0.11 0.63 0.74 1.11 1.49 1.13 26.91 33.49 40.64 73.45 39.18 114.07 3.05 9.47 3.77 19.38 2.12 29.1l0.25-0.1z m-67.62-148.89c13.44 11.25 25.16 23.9 34.89 37.66 2.17 3.42 5.03 6.26 7.15 9.78-3.1-7.85-6.92-15.47-11.44-22.79-6.15-9.61-13.54-18.6-22.02-26.8-26.07-25.73-59.35-45.37-96.73-57.08 24.88 13.39 48.62 28.26 71.05 44.51 5.72 4.89 11.44 10.27 17.16 14.67l-0.06 0.05z m-486.22-51.31c-27.99 9.52-54.72 21.56-79.74 35.9 14.3-6.26 62.64-26.22 81.86-32.48 45.76-14.67 76.14-23.43 91.52-27.39-32.03 5.26-63.33 13.34-93.41 24.11l-0.23-0.14zM63.38 455.24c12.92-18.94 27.65-36.94 44.05-53.8 10.91-10.86 23.63-20.29 37.75-27.98 14.1-7.61 29.56-13.19 45.76-16.53 18.43-3.52 37.29-5.16 56.17-4.89h71.16l-24.2 33.07h-75.34c-18.17-0.53-36.16 3.23-52 10.86-16.24 9.11-29.92 21.19-40.04 35.36h133.05l-23.51 33.65h-133L47 543.73H0l63.38-88.49z m291.05-103.26h101.08c13.08-0.34 26.17 0.43 39.07 2.3 7.13 0.74 13.84 3.31 19.22 7.39 6.07 5.94 8.7 13.89 7.15 21.67-2.33 11.08-7.45 21.59-14.99 30.82-7.96 10.73-17.26 20.68-27.74 29.69-10.3 8.14-21.85 15.05-34.32 20.54-10.18 4.35-20.93 7.64-32.03 9.78a292.59 292.59 0 0 1-44.79 2.84h-56.29l-47.59 66.77h-46.33l137.56-191.8z m76.08 34.24h-54l-40.56 56.45h56.86c12.59 0.34 25.07-2.01 36.32-6.85 10.44-5.11 19.25-12.36 25.63-21.08 7.15-10.27 9.27-17.71 5.72-21.67-3.55-3.96-13.56-6.85-30.09-6.85h0.12z m320.97 0H637.07c-10.84-0.39-21.62 1.56-31.35 5.67-9.24 4.41-16.86 10.93-22.02 18.83-5.03 6.85-6.41 11.98-3.6 15.41 2.8 3.42 8.52 4.89 18.53 4.89h61.21c25.57 0 40.56 4.01 45.76 12.57s0 22.26-13.56 41.63c-11.85 17.95-29.04 32.9-49.82 43.34-21.01 9.51-44.53 14.23-68.3 13.7H448.7l24.88-34.24h116.75c10.74 0.51 21.46-1.17 31.29-4.89 8.23-3.95 15.11-9.66 19.96-16.58 5.72-7.97 7.04-13.65 4.92-17.07s-9.95-5.14-22.02-5.14h-54.86c-25.63 0-40.56-4.6-46.22-13.16-5.66-8.56-1.37-22.79 12.07-41.63 12.12-18.29 29.54-33.62 50.57-44.51 21.18-9.74 44.94-14.64 68.99-14.23H776.7l-24.88 35.36-0.34 0.05z"></path></svg>